<?xml version="1.0" encoding="iso-8859-1"?>
<!-- Uploaded to: SVG Repo, www.svgrepo.com, Generator: SVG Repo Mixer Tools -->
<svg height="800px" width="800px" version="1.1" id="Layer_1" xmlns="http://www.w3.org/2000/svg" xmlns:xlink="http://www.w3.org/1999/xlink" 
	 viewBox="0 0 512 512" xml:space="preserve">
<path style="fill:#FCD197;" d="M256,8.17c-20.654,0-40.731,2.527-59.915,7.299v481.062c19.184,4.771,39.261,7.299,59.915,7.299
	c136.867,0,247.83-110.962,247.83-247.83S392.867,8.17,256,8.17z"/>
<path style="fill:#8811A4;" d="M196.085,15.469C304.008,42.256,384,139.787,384,256s-79.992,213.744-187.915,240.531
	C88.162,469.744,8.17,372.213,8.17,256S88.162,42.256,196.085,15.469z"/>
<g>
	<circle style="fill:#FAB352;" cx="421.714" cy="373.106" r="8.17"/>
	<circle style="fill:#FAB352;" cx="394.48" cy="394.894" r="8.17"/>
	<circle style="fill:#FAB352;" cx="400.743" cy="128" r="8.17"/>
</g>
<g>
	<polygon style="fill:#FCD197;" points="236.883,291.346 253.715,325.451 291.351,330.92 264.117,357.466 270.546,394.951 
		236.883,377.254 203.219,394.951 209.649,357.466 182.415,330.92 220.051,325.451 	"/>
	<polygon style="fill:#FCD197;" points="236.883,117.049 253.715,151.153 291.351,156.622 264.117,183.169 270.546,220.653 
		236.883,202.956 203.219,220.653 209.649,183.169 182.415,156.622 220.051,151.153 	"/>
</g>
<polygon style="fill:#FAB352;" points="116.07,204.198 132.902,238.302 170.538,243.771 143.304,270.317 149.734,307.802 
	116.07,290.105 82.407,307.802 88.836,270.317 61.602,243.771 99.239,238.302 "/>
<g>
	<path style="fill:#440852;" d="M299.12,328.396c-0.961-2.958-3.518-5.113-6.595-5.56l-33.386-4.852l-14.931-30.253
		c-1.377-2.789-4.217-4.555-7.327-4.555s-5.95,1.766-7.327,4.555l-14.931,30.253l-33.386,4.852c-3.077,0.447-5.634,2.604-6.595,5.56
		c-0.961,2.958-0.159,6.204,2.068,8.375l24.158,23.548l-5.703,33.251c-0.525,3.064,0.734,6.163,3.251,7.99
		c1.424,1.034,3.109,1.561,4.803,1.561c1.3,0,2.606-0.309,3.801-0.938l29.86-15.699l29.862,15.699
		c2.754,1.448,6.088,1.205,8.604-0.622c2.516-1.828,3.776-4.925,3.251-7.99l-5.703-33.251l24.158-23.548
		C299.28,334.6,300.082,331.353,299.12,328.396z M258.414,351.615c-1.926,1.878-2.805,4.582-2.35,7.232l3.631,21.168l-19.01-9.995
		c-1.191-0.625-2.497-0.938-3.802-0.938s-2.611,0.313-3.802,0.938l-19.009,9.995l3.631-21.168c0.454-2.65-0.424-5.354-2.35-7.232
		l-15.38-14.992l21.255-3.088c2.661-0.386,4.962-2.058,6.152-4.47l9.505-19.26l9.506,19.26c1.191,2.412,3.49,4.083,6.152,4.47
		l21.253,3.088L258.414,351.615z"/>
	<path style="fill:#440852;" d="M299.12,154.098c-0.961-2.958-3.518-5.113-6.595-5.56l-33.386-4.852l-14.931-30.253
		c-1.377-2.789-4.217-4.555-7.327-4.555s-5.95,1.766-7.327,4.555l-14.931,30.253l-33.386,4.852c-3.077,0.447-5.634,2.604-6.595,5.56
		c-0.961,2.958-0.159,6.204,2.068,8.375l24.158,23.548l-5.703,33.251c-0.525,3.064,0.734,6.163,3.251,7.99
		c1.424,1.034,3.109,1.561,4.803,1.561c1.3,0,2.606-0.309,3.801-0.938l29.86-15.699l29.862,15.699
		c2.754,1.448,6.088,1.205,8.604-0.622c2.516-1.828,3.776-4.925,3.251-7.99l-5.703-33.251l24.158-23.548
		C299.28,160.302,300.082,157.055,299.12,154.098z M258.414,177.318c-1.926,1.878-2.805,4.582-2.35,7.232l3.631,21.168l-19.01-9.995
		c-1.191-0.625-2.497-0.938-3.802-0.938s-2.611,0.313-3.802,0.938l-19.009,9.995l3.631-21.168c0.454-2.65-0.424-5.354-2.35-7.232
		l-15.38-14.992l21.255-3.088c2.661-0.386,4.962-2.058,6.152-4.47l9.505-19.26l9.506,19.26c1.191,2.412,3.49,4.083,6.152,4.47
		l21.253,3.088L258.414,177.318z"/>
	<path style="fill:#440852;" d="M77.605,314.412c2.515,1.828,5.85,2.07,8.604,0.622l29.862-15.699l29.86,15.699
		c1.196,0.629,2.5,0.938,3.801,0.938c1.694,0,3.38-0.526,4.803-1.561c2.516-1.828,3.776-4.925,3.251-7.99l-5.703-33.251
		l24.158-23.548c2.227-2.171,3.028-5.418,2.068-8.375c-0.961-2.958-3.518-5.113-6.595-5.56l-33.386-4.852l-14.931-30.253
		c-1.377-2.789-4.217-4.555-7.327-4.555c-3.109,0-5.95,1.766-7.327,4.555l-14.931,30.253l-33.386,4.852
		c-3.077,0.447-5.634,2.604-6.595,5.56c-0.961,2.958-0.159,6.204,2.068,8.375l24.158,23.548l-5.703,33.251
		C73.829,309.487,75.09,312.584,77.605,314.412z M79.161,249.476l21.253-3.088c2.661-0.386,4.961-2.058,6.152-4.47l9.506-19.26
		l9.505,19.26c1.19,2.412,3.49,4.083,6.152,4.47l21.255,3.088l-15.38,14.992c-1.926,1.878-2.805,4.582-2.35,7.232l3.631,21.168
		l-19.009-9.995c-2.381-1.251-5.223-1.251-7.604,0l-19.01,9.995l3.631-21.168c0.454-2.65-0.424-5.354-2.35-7.232L79.161,249.476z"/>
	<path style="fill:#440852;" d="M437.019,74.981C388.667,26.628,324.38,0,256,0S123.332,26.628,74.981,74.981
		C26.628,123.333,0,187.62,0,256c0,62.112,22.533,122.018,63.449,168.686c2.974,3.392,8.136,3.732,11.529,0.757
		c3.393-2.975,3.732-8.138,0.757-11.53C37.434,370.227,16.34,314.147,16.34,256c0-111.482,76.513-205.43,179.785-232.087
		C302.037,51.168,375.83,146.301,375.83,256c0,109.679-73.766,204.798-179.649,232.073c-36.044-9.286-69.691-26.905-98.095-51.808
		c-3.393-2.974-8.556-2.637-11.53,0.757c-2.974,3.392-2.635,8.556,0.757,11.53c30.659,26.88,67.034,45.825,105.993,55.66
		c0.544,0.197,1.109,0.329,1.69,0.407c19.819,4.86,40.287,7.38,61.004,7.38c68.38,0,132.667-26.628,181.019-74.981
		S512,324.38,512,256S485.372,123.333,437.019,74.981z M256,495.66c-8.744,0-17.44-0.486-26.055-1.427
		c41.684-16.483,78.899-43.931,106.974-79.358C373.064,369.262,392.17,314.323,392.17,256s-19.106-113.262-55.251-158.875
		c-28.077-35.43-65.296-62.88-106.985-79.362c8.565-0.93,17.259-1.423,26.066-1.423c132.149,0,239.66,107.51,239.66,239.66
		S388.149,495.66,256,495.66z"/>
</g>
</svg>